<svg xmlns="http://www.w3.org/2000/svg" width="130" height="130" viewBox="0 0 130 130"><path d="M130,20.313c0,4.573-3.631,8.785-9.75,12.187-7.389,4.088-18.383,6.982-31.053,7.846-.914-.432-1.879-.863-2.844-1.27C76.324,34.887,63.02,32.5,48.75,32.5c-2.107,0-4.164.051-6.221.152L42.25,32.5c-6.119-3.4-9.75-7.615-9.75-12.187C32.5,9.095,54.107,0,81.25,0,108.164,0,130,9.095,130,20.313ZM40.8,40.9c2.59-.178,5.23-.279,7.947-.279,15.793,0,29.809,3.123,38.721,7.973,6.3,3.428,10.029,7.693,10.029,12.34a9.561,9.561,0,0,1-.533,2.971c-1.168,3.352-4.52,6.424-8.887,9.039h0a.193.193,0,0,0-.1.051h0c-.076.051-.152.076-.229.127-8.887,4.926-23.055,8.125-39,8.125-15.133,0-28.676-2.869-37.619-7.389-.475-.254-.937-.711-1.384-.736C3.626,69.723,0,65.508,0,60.938,0,52.1,13.566,44.561,32.5,41.793c2.666-.406,5.434-.711,8.3-.889Zm58.7,6.475a85.453,85.453,0,0,0,19.348-5.205A44.415,44.415,0,0,0,130,35.7v8.988c0,4.9-4.189,9.42-11.121,12.924a62.027,62.027,0,0,1-13.3,4.672c.025-.432.051-.889.051-1.346,0-5.561-2.691-10.131-6.119-13.559ZM97.5,85.313c0,4.57-3.631,8.785-9.75,12.188-.457.025-.914.482-1.371.736-8.963,4.52-22.5,7.389-37.629,7.389-15.945,0-30.108-3.2-39-8.125C3.626,94.1,0,89.883,0,85.313V76.324A44.194,44.194,0,0,0,11.154,82.8c10.032,4.189,23.326,6.576,37.6,6.576s27.574-2.387,37.6-6.576a51.257,51.257,0,0,0,5.688-2.768,40.339,40.339,0,0,0,4.367-2.844c.381-.279.736-.584,1.092-.863Zm8.125-14.7a115.99,115.99,0,0,0,13.229-4.062A44.415,44.415,0,0,0,130,60.074v8.988c0,2.666-1.27,5.332-3.783,7.846-4.139,4.139-11.426,7.541-20.643,9.75.025-.432.051-.889.051-1.346ZM48.75,113.75c14.27,0,27.574-2.387,37.6-6.576A44.416,44.416,0,0,0,97.5,100.7v8.988C97.5,120.91,75.664,130,48.75,130S0,120.91,0,109.688V100.7a44.194,44.194,0,0,0,11.154,6.475C21.186,111.363,34.48,113.75,48.75,113.75Z" fill="#dd695f"/></svg>