<svg xmlns="http://www.w3.org/2000/svg" width="140.439" height="124.19" viewBox="0 0 140.439 124.19"><path d="M138.564,81.573a9.765,9.765,0,0,0-13.639-2.054L95.734,100.9H66.324a3.734,3.734,0,0,1-3.682-3.879,3.88,3.88,0,0,1,3.682-3.881H85.406c3.682,0,7.5-2.639,8.138-6.457a7.79,7.79,0,0,0-7.711-9.067H46.6a29.258,29.258,0,0,0-18.075,6.367l-11.34,9.154L3.682,92.924A4.1,4.1,0,0,0,0,97.024V120.3a3.873,3.873,0,0,0,3.682,3.886h84.4a25.647,25.647,0,0,0,15.046-4.917l32.946-24.139A9.4,9.4,0,0,0,138.564,81.573ZM68.111,42.448a37.155,37.155,0,0,1-6.438-1.916l-1.195-.412a5.743,5.743,0,0,0-7.462,3.323,5.909,5.909,0,0,0,3.558,7.432l1.135.4a60.543,60.543,0,0,0,6.679,2.016v2.982a5.85,5.85,0,0,0,11.7,0V53.751c6.162-1.388,10.457-5.3,11.242-11.09,2.119-12.14-9.484-15.441-15.71-17.21l-1.291-.444c-6.414-1.809-6.048-2.591-5.877-3.587.282-1.641,3.731-2.44,7.855-1.793A29.509,29.509,0,0,1,77.1,20.943a5.825,5.825,0,1,0,3.824-11A46.579,46.579,0,0,0,76.091,8.55V5.821a5.85,5.85,0,0,0-11.7,0V8.373C58.235,9.758,53.919,13.644,52.7,19.436c-1.878,12,9.9,15.444,14.339,16.754l1.585.455c7.721,2.2,7.6,2.884,7.4,4.036C75.744,42.327,72.306,43.127,68.111,42.448Z" fill="#dd695f"/></svg>