<svg xmlns="http://www.w3.org/2000/svg" width="140.174" height="109.024" viewBox="0 0 140.174 109.024"><path d="M128.493,32H11.681A11.681,11.681,0,0,0,0,43.681v3.894H140.174V43.681A11.683,11.683,0,0,0,128.493,32ZM0,129.343a11.683,11.683,0,0,0,11.681,11.681H128.493a11.681,11.681,0,0,0,11.681-11.681V55.362H0ZM89.555,70.937h31.15a3.894,3.894,0,1,1,0,7.787H89.555a3.894,3.894,0,0,1,0-7.787Zm0,15.575h31.15a3.894,3.894,0,1,1,0,7.787H89.555a3.894,3.894,0,0,1,0-7.787Zm0,15.575h31.15a3.894,3.894,0,1,1,0,7.787H89.555a3.894,3.894,0,0,1,0-7.787ZM42.831,70.937A15.575,15.575,0,1,1,27.256,86.512,15.575,15.575,0,0,1,42.831,70.937ZM27.256,109.874h31.15a11.681,11.681,0,0,1,11.681,11.681,3.894,3.894,0,0,1-3.894,3.894H19.469a3.9,3.9,0,0,1-3.894-3.894A11.683,11.683,0,0,1,27.256,109.874Z" transform="translate(0 -32)" fill="#dd695f"/></svg>