<svg xmlns="http://www.w3.org/2000/svg" width="168.234" height="117.033" viewBox="0 0 168.234 117.033"><path d="M48.367,46.629A14.721,14.721,0,1,1,33.647,32,14.684,14.684,0,0,1,48.367,46.629Zm6.414,28.292a37.45,37.45,0,0,0-12.723,28.135A36.006,36.006,0,0,0,50.47,126.7v5.617a8.377,8.377,0,0,1-8.412,8.359H25.235a8.382,8.382,0,0,1-8.412-8.359v-7a29.23,29.23,0,0,1,12.618-55.7h8.412a30,30,0,0,1,16.929,5.3Zm-37.958,12.9a16.619,16.619,0,0,0,0,22.1Zm100.941,44.488V126.7a37.452,37.452,0,0,0-4.311-51.776,29.44,29.44,0,0,1,16.929-5.3h8.412a29.23,29.23,0,0,1,12.618,55.7v7A8.377,8.377,0,0,1,143,140.673H126.176A8.377,8.377,0,0,1,117.764,132.314Zm33.647-22.388a16.619,16.619,0,0,0,0-22.1Zm-2.1-63.3A14.721,14.721,0,1,1,134.588,32,14.684,14.684,0,0,1,149.308,46.629Zm-82.014,2.09A16.824,16.824,0,1,1,84.117,65.438,16.779,16.779,0,0,1,67.294,48.719Zm50.47,54.337a29.259,29.259,0,0,1-16.823,26.437v11.181a8.377,8.377,0,0,1-8.412,8.359H75.705a8.377,8.377,0,0,1-8.412-8.359V129.492A29.23,29.23,0,0,1,79.911,73.8h8.412A29.335,29.335,0,0,1,117.764,103.056Zm-50.47,11.05v-22.1a16.619,16.619,0,0,0,0,22.1Zm33.647-22.1v22.1a16.619,16.619,0,0,0,0-22.1Z" transform="translate(0 -32)" fill="#dd695f"/></svg>